<svg xmlns="http://www.w3.org/2000/svg" xmlns:xlink="http://www.w3.org/1999/xlink" width="280" height="28" viewBox="0 0 280 28"><defs><path id="a" d="M.005.125H3.06V3.17H.005z"/><path id="c" d="M.088.05h3.055v3.048H.088z"/><path id="e" d="M.083.125h3.056V3.17H.083z"/></defs><g fill="none" fill-rule="evenodd"><g transform="translate(25.062 .017)"><mask id="b" fill="#fff"><use xlink:href="#a"/></mask><path fill="#000" d="M.005 1.648a1.527 1.527 0 0 0 3.055 0 1.527 1.527 0 0 0-3.055 0" mask="url(#b)"/></g><path fill="#000" d="M27.99 11.984a1.527 1.527 0 0 0-3.056 0 1.527 1.527 0 0 0 3.056 0M27.613 7.25a1.527 1.527 0 0 0 3.056 0 1.527 1.527 0 0 0-3.056 0M31.571 4.298c.843 0 1.529-.684 1.529-1.524a1.527 1.527 0 0 0-3.056 0c0 .84.685 1.524 1.527 1.524M34.644 5.034a1.527 1.527 0 0 0 3.056 0 1.527 1.527 0 0 0-3.056 0M33.626 7.926c-.843 0-1.528.683-1.528 1.523a1.527 1.527 0 0 0 3.056 0c0-.84-.686-1.523-1.528-1.523M32.617 13.975a1.527 1.527 0 0 0-3.056 0 1.527 1.527 0 0 0 3.056 0M38.541 8.331a1.527 1.527 0 0 0 3.056 0 1.527 1.527 0 0 0-3.056 0M35.686 12.947a1.527 1.527 0 0 0 3.056 0 1.527 1.527 0 0 0-3.056 0M33.019 17.63a1.527 1.527 0 0 0 3.056 0 1.527 1.527 0 0 0-3.056 0M41.634 12.6a1.527 1.527 0 0 0 3.056 0 1.527 1.527 0 0 0-3.056 0M38.455 17.464a1.527 1.527 0 0 0 3.056 0 1.527 1.527 0 0 0-3.056 0M45.49 18.872c.842 0 1.527-.683 1.527-1.523a1.527 1.527 0 0 0-3.056 0c0 .84.686 1.523 1.528 1.523M37.655 22.352a1.528 1.528 0 0 0-3.056 0 1.527 1.527 0 0 0 3.056 0M42.848 22.347a1.527 1.527 0 0 0-3.056 0 1.527 1.527 0 0 0 3.056 0"/><g transform="translate(44.743 20.77)"><mask id="d" fill="#fff"><use xlink:href="#c"/></mask><path fill="#000" d="M1.615.05C.773.05.088.735.088 1.575a1.527 1.527 0 0 0 3.055 0c0-.84-.685-1.523-1.528-1.523" mask="url(#d)"/></g><g transform="translate(19.681 .017)"><mask id="f" fill="#fff"><use xlink:href="#e"/></mask><path fill="#000" d="M.083 1.648a1.527 1.527 0 0 0 3.056 0 1.527 1.527 0 0 0-3.056 0" mask="url(#f)"/></g><path fill="#000" d="M22.952 11.984a1.527 1.527 0 0 0-3.056 0 1.527 1.527 0 0 0 3.056 0M17.218 7.25a1.527 1.527 0 0 0 3.056 0 1.527 1.527 0 0 0-3.056 0M16.315 4.298c.843 0 1.528-.684 1.528-1.524a1.527 1.527 0 0 0-3.056 0c0 .84.686 1.524 1.528 1.524M10.187 5.034a1.527 1.527 0 0 0 3.056 0 1.527 1.527 0 0 0-3.056 0M12.733 9.45a1.527 1.527 0 0 0 3.056 0 1.527 1.527 0 0 0-3.056 0M18.326 13.975a1.527 1.527 0 0 0-3.056 0 1.527 1.527 0 0 0 3.056 0M6.29 8.331a1.527 1.527 0 0 0 3.056 0 1.527 1.527 0 0 0-3.056 0M10.673 11.424c-.843 0-1.528.683-1.528 1.523a1.527 1.527 0 0 0 3.056 0c0-.84-.686-1.523-1.528-1.523M13.34 16.107c-.842 0-1.528.684-1.528 1.524a1.527 1.527 0 0 0 3.056 0c0-.84-.685-1.524-1.528-1.524M3.197 12.6a1.527 1.527 0 0 0 3.056 0 1.527 1.527 0 0 0-3.056 0M7.904 15.94c-.843 0-1.528.684-1.528 1.524a1.527 1.527 0 0 0 3.056 0c0-.84-.686-1.523-1.528-1.523M2.398 15.825c-.843 0-1.529.684-1.529 1.524a1.528 1.528 0 0 0 3.056 0c0-.84-.685-1.524-1.527-1.524M13.288 22.352a1.527 1.527 0 0 0-3.056 0 1.527 1.527 0 0 0 3.056 0M8.094 22.347a1.527 1.527 0 0 0-3.055 0 1.527 1.527 0 0 0 3.055 0M1.528 20.82C.685 20.82 0 21.504 0 22.344a1.527 1.527 0 0 0 3.056 0c0-.84-.685-1.524-1.528-1.524M23.943 5.005c-.842 0-1.527.683-1.527 1.523a1.527 1.527 0 0 0 3.055 0c0-.84-.685-1.523-1.528-1.523"/><path fill="#1E1E1E" d="M72.16 23l-1.77-5.042h-7.008L61.612 23h-2.307L65.8 5.385h2.173L74.466 23H72.16zM66.85 8.059l-2.82 8.032h5.712l-2.82-8.032h-.073zm20.678 12.963V23H76.834V5.385h2.198v15.637h8.496zM98.832 7.338v6.75h4.333c2.258 0 3.54-1.22 3.54-3.38 0-2.112-1.367-3.37-3.638-3.37h-4.235zm0 8.692V23h-2.198V5.385h6.726c3.394 0 5.616 2.075 5.616 5.25 0 2.453-1.331 4.357-3.54 5.053L109.513 23h-2.576l-3.772-6.97h-4.333zm18.237-4.444c-2.063 0-3.552 1.502-3.699 3.724h7.239c-.049-2.234-1.465-3.724-3.54-3.724zm3.491 7.654h2.1c-.367 2.259-2.65 3.882-5.457 3.882-3.699 0-6.03-2.576-6.03-6.653s2.344-6.75 5.932-6.75c3.516 0 5.713 2.478 5.713 6.457v.83h-9.448v.122c0 2.503 1.538 4.126 3.882 4.126 1.648 0 2.93-.78 3.308-2.014zm15.723-5.115h-2.088c-.268-1.403-1.44-2.514-3.418-2.514-2.295 0-3.857 1.904-3.857 4.81 0 2.99 1.587 4.809 3.882 4.809 1.83 0 3.052-.855 3.418-2.441h2.087c-.354 2.563-2.515 4.333-5.517 4.333-3.614 0-6.03-2.563-6.03-6.702 0-4.04 2.404-6.701 6.005-6.701 3.26 0 5.25 2.1 5.518 4.406zm7.837 8.997c-3.7 0-6.067-2.624-6.067-6.702 0-4.089 2.368-6.701 6.067-6.701 3.698 0 6.067 2.612 6.067 6.701 0 4.078-2.369 6.702-6.067 6.702zm0-1.892c2.453 0 3.906-1.794 3.906-4.81 0-3.027-1.453-4.81-3.906-4.81-2.454 0-3.907 1.795-3.907 4.81 0 3.016 1.465 4.81 3.907 4.81zm8.654 1.77V9.84h2.002v2.137h.05c.39-1.38 1.647-2.258 3.185-2.258.379 0 .696.036.88.073v2.087c-.172-.06-.636-.122-1.16-.122-1.71 0-2.833 1.245-2.833 3.1V23h-2.124zm13.27.122c-3.309 0-5.64-2.685-5.64-6.702 0-4.016 2.32-6.701 5.59-6.701 1.88 0 3.394.818 4.2 2.258h.049v-7.36h2.124V23h-2.027v-2.222h-.036c-.855 1.514-2.356 2.344-4.26 2.344zm.378-11.511c-2.307 0-3.845 1.904-3.845 4.81 0 2.917 1.538 4.809 3.845 4.809 2.283 0 3.833-1.94 3.833-4.81 0-2.856-1.55-4.81-3.833-4.81zm9.082 1.904c0-2.222 2.014-3.784 4.87-3.784 2.674 0 4.7 1.6 4.786 3.76h-2.039c-.134-1.233-1.208-2.002-2.82-2.002-1.623 0-2.71.769-2.71 1.916 0 .891.708 1.49 2.222 1.868l2.002.5c2.661.672 3.613 1.6 3.613 3.516 0 2.246-2.16 3.833-5.2 3.833-2.832 0-4.883-1.538-5.09-3.82h2.136c.22 1.342 1.306 2.062 3.1 2.062 1.795 0 2.918-.744 2.918-1.928 0-.928-.55-1.416-2.05-1.807l-2.308-.598c-2.307-.598-3.43-1.758-3.43-3.516z"/><path fill="#786EFF" d="M216.067 5.385V23h-2.05V9.426h-.086l-5.615 13.452h-1.856l-5.615-13.452h-.085V23h-2.051V5.385h2.551l6.08 14.698h.097l6.08-14.698h2.55zm7.8 15.894c2.15 0 3.724-1.392 3.724-3.284v-1.062l-3.443.22c-1.977.122-3.002.842-3.002 2.112 0 1.22 1.062 2.014 2.722 2.014zm-.451 1.843c-2.673 0-4.443-1.538-4.443-3.87 0-2.258 1.733-3.588 4.931-3.784l3.687-.22V14.15c0-1.636-1.074-2.54-3.015-2.54-1.526 0-2.661.782-2.918 2.027h-2.038c.06-2.221 2.221-3.918 4.98-3.918 3.113 0 5.115 1.66 5.115 4.248V23H227.7v-2.283h-.05c-.744 1.465-2.392 2.405-4.235 2.405zm20.35-8.997h-2.088c-.269-1.403-1.44-2.514-3.418-2.514-2.295 0-3.858 1.904-3.858 4.81 0 2.99 1.587 4.809 3.882 4.809 1.831 0 3.052-.855 3.418-2.441h2.088c-.354 2.563-2.515 4.333-5.518 4.333-3.613 0-6.03-2.563-6.03-6.702 0-4.04 2.404-6.701 6.006-6.701 3.259 0 5.249 2.1 5.517 4.406zm6.713 7.154c2.148 0 3.723-1.392 3.723-3.284v-1.062l-3.442.22c-1.978.122-3.003.842-3.003 2.112 0 1.22 1.062 2.014 2.722 2.014zm-.452 1.843c-2.673 0-4.443-1.538-4.443-3.87 0-2.258 1.733-3.588 4.932-3.784l3.686-.22V14.15c0-1.636-1.074-2.54-3.015-2.54-1.526 0-2.661.782-2.917 2.027h-2.039c.061-2.221 2.222-3.918 4.98-3.918 3.113 0 5.115 1.66 5.115 4.248V23h-2.014v-2.283h-.049c-.744 1.465-2.392 2.405-4.236 2.405zM270.23 9.841V23h-2.002v-2.173h-.049c-.818 1.514-2.173 2.295-4.187 2.295-2.88 0-4.553-1.855-4.553-4.846V9.84h2.124v8.069c0 2.16 1.013 3.32 3.076 3.32 2.16 0 3.467-1.49 3.467-3.748V9.841h2.124z"/></g></svg>