<svg xmlns="http://www.w3.org/2000/svg" xmlns:xlink="http://www.w3.org/1999/xlink" width="280" height="28" viewBox="0 0 280 28"><defs><path id="a" d="M.005.125H3.06V3.17H.005z"/><path id="c" d="M.088.05h3.055v3.048H.088z"/><path id="e" d="M.083.125h3.056V3.17H.083z"/></defs><g fill="none" fill-rule="evenodd"><g transform="translate(25.062 .017)"><mask id="b" fill="#fff"><use xlink:href="#a"/></mask><path fill="#000" d="M.005 1.648a1.527 1.527 0 0 0 3.055 0 1.527 1.527 0 0 0-3.055 0" mask="url(#b)"/></g><path fill="#000" d="M27.99 11.984a1.527 1.527 0 0 0-3.056 0 1.527 1.527 0 0 0 3.056 0M27.613 7.25a1.527 1.527 0 0 0 3.056 0 1.527 1.527 0 0 0-3.056 0M31.571 4.298c.843 0 1.529-.684 1.529-1.524a1.527 1.527 0 0 0-3.056 0c0 .84.685 1.524 1.527 1.524M34.644 5.034a1.527 1.527 0 0 0 3.056 0 1.527 1.527 0 0 0-3.056 0M33.626 7.926c-.843 0-1.528.683-1.528 1.523a1.527 1.527 0 0 0 3.056 0c0-.84-.686-1.523-1.528-1.523M32.617 13.975a1.527 1.527 0 0 0-3.056 0 1.527 1.527 0 0 0 3.056 0M38.541 8.331a1.527 1.527 0 0 0 3.056 0 1.527 1.527 0 0 0-3.056 0M35.686 12.947a1.527 1.527 0 0 0 3.056 0 1.527 1.527 0 0 0-3.056 0M33.019 17.63a1.527 1.527 0 0 0 3.056 0 1.527 1.527 0 0 0-3.056 0M41.634 12.6a1.527 1.527 0 0 0 3.056 0 1.527 1.527 0 0 0-3.056 0M38.455 17.464a1.527 1.527 0 0 0 3.056 0 1.527 1.527 0 0 0-3.056 0M45.49 18.872c.842 0 1.527-.683 1.527-1.523a1.527 1.527 0 0 0-3.056 0c0 .84.686 1.523 1.528 1.523M37.655 22.352a1.528 1.528 0 0 0-3.056 0 1.527 1.527 0 0 0 3.056 0M42.848 22.347a1.527 1.527 0 0 0-3.056 0 1.527 1.527 0 0 0 3.056 0"/><g transform="translate(44.743 20.77)"><mask id="d" fill="#fff"><use xlink:href="#c"/></mask><path fill="#000" d="M1.615.05C.773.05.088.735.088 1.575a1.527 1.527 0 0 0 3.055 0c0-.84-.685-1.523-1.528-1.523" mask="url(#d)"/></g><g transform="translate(19.681 .017)"><mask id="f" fill="#fff"><use xlink:href="#e"/></mask><path fill="#000" d="M.083 1.648a1.527 1.527 0 0 0 3.056 0 1.527 1.527 0 0 0-3.056 0" mask="url(#f)"/></g><path fill="#000" d="M22.952 11.984a1.527 1.527 0 0 0-3.056 0 1.527 1.527 0 0 0 3.056 0M17.218 7.25a1.527 1.527 0 0 0 3.056 0 1.527 1.527 0 0 0-3.056 0M16.315 4.298c.843 0 1.528-.684 1.528-1.524a1.527 1.527 0 0 0-3.056 0c0 .84.686 1.524 1.528 1.524M10.187 5.034a1.527 1.527 0 0 0 3.056 0 1.527 1.527 0 0 0-3.056 0M12.733 9.45a1.527 1.527 0 0 0 3.056 0 1.527 1.527 0 0 0-3.056 0M18.326 13.975a1.527 1.527 0 0 0-3.056 0 1.527 1.527 0 0 0 3.056 0M6.29 8.331a1.527 1.527 0 0 0 3.056 0 1.527 1.527 0 0 0-3.056 0M10.673 11.424c-.843 0-1.528.683-1.528 1.523a1.527 1.527 0 0 0 3.056 0c0-.84-.686-1.523-1.528-1.523M13.34 16.107c-.842 0-1.528.684-1.528 1.524a1.527 1.527 0 0 0 3.056 0c0-.84-.685-1.524-1.528-1.524M3.197 12.6a1.527 1.527 0 0 0 3.056 0 1.527 1.527 0 0 0-3.056 0M7.904 15.94c-.843 0-1.528.684-1.528 1.524a1.527 1.527 0 0 0 3.056 0c0-.84-.686-1.523-1.528-1.523M2.398 15.825c-.843 0-1.529.684-1.529 1.524a1.528 1.528 0 0 0 3.056 0c0-.84-.685-1.524-1.527-1.524M13.288 22.352a1.527 1.527 0 0 0-3.056 0 1.527 1.527 0 0 0 3.056 0M8.094 22.347a1.527 1.527 0 0 0-3.055 0 1.527 1.527 0 0 0 3.055 0M1.528 20.82C.685 20.82 0 21.504 0 22.344a1.527 1.527 0 0 0 3.056 0c0-.84-.685-1.524-1.528-1.524M23.943 5.005c-.842 0-1.527.683-1.527 1.523a1.527 1.527 0 0 0 3.055 0c0-.84-.685-1.523-1.528-1.523"/><path fill="#1E1E1E" d="M75.742 7.458l.858 1.496c-.858.22-1.826.418-2.926.55v1.892h.352c.396-.616.704-1.232.946-1.826l1.474.616c-.242.44-.484.858-.748 1.21h1.012v1.584h-2.97c.924.396 1.848.814 2.772 1.298L75.5 15.796c-.704-.616-1.32-1.1-1.826-1.496v1.628h-1.848V14.19c-.748.77-1.54 1.452-2.42 2.024l-.946-1.65c1.144-.462 2.112-.99 2.948-1.584h-2.772v-1.584h1.1a12.81 12.81 0 0 0-.528-.968l1.408-.572c.264.484.484 1.012.682 1.54h.528V9.658a47.77 47.77 0 0 1-2.574.066l-.55-1.584c2.772 0 5.104-.242 7.04-.682zm-1.65 12.65c2.288.682 4.378 1.496 6.27 2.464l-1.232 1.892c-2.002-1.144-4.048-2.068-6.116-2.728l1.078-1.628zM62.014 4.158c1.452 1.034 2.706 2.068 3.74 3.08l-1.65 1.65c-.88-.968-2.112-2.024-3.718-3.146l1.628-1.584zm-.572 5.258c1.452 1.056 2.684 2.09 3.696 3.146L63.51 14.19c-.858-.99-2.09-2.046-3.696-3.19l1.628-1.584zm1.76 5.94l2.024.792a72.386 72.386 0 0 1-3.036 7.92l-2.134-.946a69.118 69.118 0 0 0 3.146-7.766zm2.024 2.332h6.182c.132-.44.242-.902.308-1.386h2.156c-.066.484-.154.946-.264 1.386h6.49v1.936h-7.194a8.751 8.751 0 0 1-1.364 1.936c-1.166 1.166-3.19 2.09-6.072 2.772l-.88-2.068c2.398-.484 4.136-1.188 5.192-2.09.198-.176.374-.374.55-.55h-5.104v-1.936zM71.54 3.74l2.266.308a11 11 0 0 1-.528 1.364h6.138v9.768c0 1.144-.66 1.716-1.936 1.716h-1.034l-.484-1.76.924.066c.242 0 .374-.176.374-.506V7.304h-9.086v9.614h-2.2V5.412h4.972c.264-.55.462-1.1.594-1.672zm13.552 5.808v1.496h3.96V9.548h-3.96zm3.96-1.804V6.358h-3.96v1.386h3.96zm5.896 1.804v1.518h3.872V9.548h-3.872zm3.872-1.804V6.402h-3.872v1.342h3.872zm0 5.192h-6.16V4.51h8.426v16.94c0 1.826-.748 2.75-2.2 2.75-.792 0-1.562-.044-2.354-.088L95.96 22c.748.066 1.452.11 2.112.11.484 0 .748-.462.748-1.386v-7.788zM91.34 4.51v8.404h-6.248v11.308h-2.288V4.51h8.536zm26.84 4.928h-8.338c.836 3.454 1.606 7.282 2.288 11.506h3.366c1.012-3.168 1.892-7.018 2.684-11.506zm-.286 11.506h6.204v2.222h-20.13v-2.222h5.896c-.66-3.982-1.474-7.81-2.42-11.506h-2.486V7.216h7.898a25.507 25.507 0 0 0-1.1-2.794l2.464-.396c.308.924.616 2.002.924 3.19h7.964v2.222h-2.552c-.748 4.29-1.628 8.118-2.662 11.506zm19.558-16.962h2.332v3.256h5.412V9.46h-5.412v3.41h5.984v2.244h-7.128c-1.188 2.816-2.266 4.906-3.19 6.27a80.485 80.485 0 0 0 6.842-1.1 41.45 41.45 0 0 0-1.672-3.146l2.222-.748a49.485 49.485 0 0 1 3.366 7.04l-2.178.968c-.286-.748-.572-1.452-.836-2.112-3.278.66-6.82 1.166-10.648 1.54l-.506-2.002a2.15 2.15 0 0 0 .484-.198c.924-.836 2.156-2.992 3.652-6.512h-4.752V12.87h6.028V9.46h-4.972V7.238h4.972V3.982zm-9.372.132c1.408 1.1 2.596 2.178 3.586 3.256l-1.628 1.65c-.836-1.034-2.046-2.134-3.608-3.322l1.65-1.584zm-.55 5.148c1.298 1.1 2.398 2.2 3.322 3.3l-1.65 1.628c-.77-1.012-1.87-2.134-3.3-3.344l1.628-1.584zm1.98 6.226l2.09.858a76.152 76.152 0 0 1-3.146 7.766l-2.31-1.012a61.594 61.594 0 0 0 3.366-7.612zm31.658-3.696l1.54.396a9.551 9.551 0 0 1-1.034 2.068l-1.474-.528a9.33 9.33 0 0 0 .968-1.936zm-6.402-.022c.396.616.726 1.298 1.034 2.09l-1.496.396a12.67 12.67 0 0 0-1.056-2.024l1.518-.462zm-4.73-1.518c-.352.176-.726.33-1.078.506l-1.232-1.936c3.542-1.408 6.732-3.036 9.592-4.884h1.364c2.86 1.848 6.05 3.476 9.592 4.884l-1.232 1.914c-.396-.176-.748-.33-1.078-.506v5.808h-15.928v-5.786zm15.466-.242c-1.1-.528-2.112-1.034-3.08-1.54v.77h-8.866v-.726a76.944 76.944 0 0 1-3.014 1.496h14.96zm-1.628 4.356v-2.64h-4.84v2.64h4.84zm-6.908 0v-2.64h-4.84v2.64h4.84zm8.162 2.442v7.524h-2.178v-.66h-9.878v.682h-2.178v-7.546h14.234zm-12.056 5.082h9.878v-.968h-9.878v.968zm0-2.508h9.878v-.88h-9.878v.88zm7.7-11.814A48.135 48.135 0 0 1 158 5.874c-.858.572-1.782 1.122-2.75 1.694h5.522zm13.508 8.712v4.928c1.76-.374 3.52-.858 5.258-1.452l.55 2.178c-2.156.682-4.84 1.342-8.096 1.958l-.616-2.2c.396-.22.594-.572.594-1.056V4.576h16.192v7.084h-5.896c.088.88.198 1.694.33 2.42h6.908v2.2h-6.402c.11.352.22.66.352.968.66 1.54 1.342 2.64 2.046 3.3.682.638 1.32.968 1.914.99.176 0 .352-.198.484-.55.132-.352.242-1.21.374-2.618l2.046 1.1c-.308 1.892-.66 3.102-1.034 3.674-.374.55-.836.836-1.364.858-1.078-.022-2.178-.528-3.322-1.518-1.144-1.012-2.134-2.486-3.014-4.378a11.964 11.964 0 0 1-.66-1.826h-6.644zm5.698-4.62h-5.698v2.42h6.094a39.674 39.674 0 0 1-.396-2.42zm5.918-4.884H174.28v2.728h11.616V6.776zm11.792 6.82h8.58v8.954h-8.58v-8.954zm6.402 7.062v-1.694h-4.202v1.694h4.202zm-4.202-3.52h4.202v-1.65h-4.202v1.65zm-4.752-7.876v1.056h3.74V9.262h-3.74zm3.74-1.716V6.534h-3.74v1.012h3.74zm6.094 1.76v1.012h3.872V9.306h-3.872zm3.872-1.716V6.556h-3.872V7.59h3.872zm-7.678-3.08v7.832h-6.028v11.924h-2.266V4.51h8.294zm7.678 7.832h-6.16V4.488h8.426v17.666c0 1.386-.682 2.09-2.024 2.09-.704 0-1.386-.044-2.046-.088l-.616-2.2c.66.088 1.276.132 1.848.132.374 0 .572-.242.572-.682v-9.064zm25.3 5.742c-.22 2.332-.506 3.85-.902 4.576-.396.682-1.232 1.034-2.508 1.034h-5.214c-1.364 0-2.046-.704-2.046-2.112v-9.79h6.93V6.798h-7.524v-2.2h9.79v9.416h-6.93v6.6c0 .55.264.836.792.88h3.806c.616 0 1.012-.308 1.166-.902.154-.572.264-1.672.33-3.278l2.31.77zm-17.468 4.972v1.232h-2.2v-8.184h7.326v7.832h-2.178v-.88h-2.948zm2.948-2.09v-2.772h-2.948v2.772h2.948zm-5.72-14.498h3.168a33.809 33.809 0 0 0-.99-2.002l2.2-.594c.44.946.77 1.804 1.012 2.596h2.948V8.58h-8.338V6.468zm.77 3.3h6.93v2.002h-6.93V9.768zm0 3.058h6.93v2.024h-6.93v-2.024zm24.42-1.804h-1.54v-.792c-.242.264-.484.506-.704.748l-1.232-1.716c1.364-1.43 2.64-3.124 3.806-5.104h1.65a48.57 48.57 0 0 1 3.696 4.004l-1.386 1.496-.286-.374v1.738h-1.914v1.87h2.662v2.068h-2.662v5.786c.836-.22 1.65-.44 2.464-.682v2.09c-2.222.704-4.576 1.276-7.084 1.76l-.528-2.178a46.624 46.624 0 0 0 3.058-.506v-6.27h-2.728v-2.068h2.728v-1.87zm-1.232 4.598c.264 1.276.528 2.75.792 4.422l-1.606.396a46.11 46.11 0 0 0-.88-4.224l1.694-.594zm4.576-.11l1.562.418c-.264 1.474-.572 2.772-.946 3.894l-1.54-.572c.352-.968.66-2.222.924-3.74zm-3.85-6.446h4.334c-.924-1.21-1.694-2.134-2.288-2.75a24.748 24.748 0 0 1-2.046 2.75zm6.27 1.408l1.87-6.578 2.09.33-.264.924h5.654v.902l-1.518 5.676h3.41v2.046h-4.95v8.294c0 1.408-.682 2.134-2.046 2.134h-1.628l-.484-2.156c.462.088.902.154 1.32.154.44 0 .66-.242.66-.682v-7.744h-4.906v-2.046h6.468l.352-1.254h-6.028zm6.512-1.804l.462-1.716h-3.806l-.484 1.716h3.828zm2.64 5.456l1.408 1.166c-.814.99-1.76 1.716-2.86 2.2l-1.034-1.408a6.828 6.828 0 0 0 2.486-1.958zm-8.602.176c1.012.484 1.958 1.056 2.816 1.76l-1.012 1.54a12.522 12.522 0 0 0-2.838-1.804l1.034-1.496zm2.288 3.542l.638 1.54a12.008 12.008 0 0 1-3.366 3.3l-1.078-1.782a12.108 12.108 0 0 0 3.806-3.058zm4.576-.044a19.901 19.901 0 0 1 4.004 3.212l-1.144 1.738c-1.232-1.496-2.508-2.662-3.828-3.542l.968-1.408zm18.084-13.882h2.332v3.608h5.258v2.244h-5.258v3.63h4.422v10.758h-2.2v-1.298h-5.544v1.32h-2.178v-10.78h3.168V3.916zm-.99 16.808h5.544V15.4h-5.544v5.324zm-11.22-13.376h3.234c-.264-1.034-.528-2.002-.836-2.904l2.332-.374c.242.968.484 2.046.726 3.278h3.388v2.2h-8.844v-2.2zm2.42 3.058c.506 2.53.968 5.412 1.364 8.646l-1.892.462c-.396-2.926-.88-5.742-1.452-8.448l1.98-.66zm5.962 8.558v2.244c-2.486.66-5.148 1.21-7.964 1.672l-.55-2.2a53.19 53.19 0 0 0 4.62-.748c.616-3.014 1.056-6.204 1.342-9.57l2.222.308c-.33 3.168-.814 6.094-1.452 8.778.616-.176 1.21-.33 1.782-.484z"/></g></svg>