<svg xmlns="http://www.w3.org/2000/svg" width="280" height="28" viewBox="0 0 280 28"><g fill="none" fill-rule="evenodd"><path class="_al-records" fill="#1E1E1E" d="M72 23l-1.342-4.272h-6.19L63.127 23h-3.784l6.116-17.615h4.333L75.919 23H72zM67.52 8.754l-2.258 7.215h4.602l-2.258-7.215h-.085zm21.583 11.194V23h-11.39V5.385H81.4v14.563h7.703zm11.242-11.682v5.615h3.235c1.856 0 2.942-1.062 2.942-2.807 0-1.71-1.147-2.808-2.979-2.808h-3.198zm0 8.289V23H96.66V5.385h7.275c4.053 0 6.372 2.136 6.372 5.615 0 2.259-1.172 4.212-3.198 5.005l3.71 6.995h-4.174l-3.284-6.445h-3.015zm18.115-4.566c-1.623 0-2.82 1.184-2.941 2.906h5.798c-.061-1.758-1.209-2.906-2.857-2.906zm2.906 6.91h3.283c-.39 2.6-2.82 4.333-6.09 4.333-4.09 0-6.593-2.625-6.593-6.897 0-4.273 2.515-7.007 6.458-7.007 3.87 0 6.335 2.588 6.335 6.677v1.099h-9.277v.22c0 1.94 1.257 3.247 3.137 3.247 1.343 0 2.405-.635 2.747-1.673zm17.456-4.383h-3.32c-.196-1.391-1.172-2.38-2.723-2.38-1.83 0-2.99 1.562-2.99 4.138 0 2.624 1.16 4.138 3.003 4.138 1.501 0 2.49-.818 2.722-2.295h3.32c-.208 3.125-2.551 5.115-6.08 5.115-4.015 0-6.579-2.637-6.579-6.958 0-4.26 2.564-6.946 6.555-6.946 3.614 0 5.92 2.197 6.092 5.188zm7.922 8.716c-4.077 0-6.628-2.612-6.628-6.958 0-4.297 2.588-6.946 6.628-6.946 4.053 0 6.629 2.637 6.629 6.946 0 4.358-2.552 6.958-6.629 6.958zm0-2.747c1.88 0 3.003-1.538 3.003-4.211 0-2.649-1.135-4.212-3.003-4.212-1.88 0-3.015 1.575-3.015 4.212 0 2.673 1.135 4.211 3.015 4.211zM155.277 23V9.56h3.442v2.405h.073c.452-1.66 1.612-2.564 3.199-2.564.415 0 .781.05 1.037.135v3.15c-.305-.123-.793-.208-1.318-.208-1.807 0-2.869 1.123-2.869 3.002V23h-3.564zm14.27.159c-3.345 0-5.505-2.661-5.505-6.897 0-4.212 2.172-6.86 5.517-6.86 1.941 0 3.442.964 4.114 2.453h.073V4.543h3.565V23h-3.516v-2.295h-.061c-.66 1.477-2.21 2.454-4.187 2.454zm1.184-10.877c-1.856 0-3.04 1.55-3.04 3.992 0 2.466 1.184 4.004 3.04 4.004 1.843 0 3.04-1.563 3.04-3.992 0-2.43-1.197-4.004-3.04-4.004zm8.826 1.233c0-2.527 2.221-4.187 5.627-4.187 3.32 0 5.53 1.697 5.579 4.26h-3.296c-.073-1.062-.965-1.733-2.332-1.733-1.281 0-2.136.574-2.136 1.44 0 .672.586 1.123 1.794 1.404l2.527.55c2.698.61 3.772 1.647 3.772 3.65 0 2.612-2.405 4.333-5.92 4.333-3.54 0-5.762-1.71-5.945-4.297h3.48c.17 1.135 1.085 1.77 2.563 1.77 1.416 0 2.282-.55 2.282-1.428 0-.696-.464-1.062-1.684-1.355l-2.478-.562c-2.527-.573-3.833-1.88-3.833-3.845z"/><path class="_macau" fill="#786EFF" d="M217.117 5.385V23h-3.284V11.11h-.097l-4.785 11.72h-2.32l-4.785-11.72h-.097V23h-3.284V5.385h4.272l5.005 12.488h.098l5.005-12.488h4.272zm7.813 15.174c1.648 0 2.966-1.026 2.966-2.49v-.99l-2.82.196c-1.49.098-2.283.683-2.283 1.672 0 .989.843 1.612 2.137 1.612zm-1.16 2.6c-2.588 0-4.529-1.624-4.529-4.029 0-2.441 1.868-3.82 5.298-4.028l3.357-.207v-.892c0-1.294-.891-2.002-2.356-2.002-1.294 0-2.197.684-2.368 1.66h-3.26c.098-2.563 2.418-4.333 5.775-4.333 3.454 0 5.712 1.77 5.712 4.456V23h-3.442v-2.075h-.073c-.733 1.404-2.393 2.234-4.114 2.234zm22.168-8.643h-3.32c-.196-1.391-1.172-2.38-2.722-2.38-1.832 0-2.991 1.562-2.991 4.138 0 2.624 1.16 4.138 3.003 4.138 1.501 0 2.49-.818 2.722-2.295h3.32c-.207 3.125-2.551 5.115-6.079 5.115-4.016 0-6.58-2.637-6.58-6.958 0-4.26 2.564-6.946 6.556-6.946 3.613 0 5.92 2.197 6.091 5.188zm6.934 6.043c1.648 0 2.966-1.026 2.966-2.49v-.99l-2.82.196c-1.49.098-2.283.683-2.283 1.672 0 .989.843 1.612 2.137 1.612zm-1.16 2.6c-2.588 0-4.529-1.624-4.529-4.029 0-2.441 1.868-3.82 5.298-4.028l3.357-.207v-.892c0-1.294-.891-2.002-2.356-2.002-1.294 0-2.197.684-2.368 1.66h-3.26c.098-2.563 2.417-4.333 5.774-4.333 3.455 0 5.713 1.77 5.713 4.456V23H255.9v-2.075h-.073c-.733 1.404-2.393 2.234-4.114 2.234zM274.05 9.56V23h-3.443v-2.43h-.073c-.683 1.685-2.002 2.625-4.04 2.625-2.906 0-4.822-1.892-4.822-5.017V9.56h3.564v7.874c0 1.818.904 2.795 2.552 2.795 1.66 0 2.697-1.196 2.697-3.015V9.56h3.565z"/><path class="_seats" fill="#000" d="M25.067 1.665a1.527 1.527 0 0 0 3.055 0 1.527 1.527 0 0 0-3.055 0m2.923 10.319a1.527 1.527 0 0 0-3.056 0 1.527 1.527 0 0 0 3.056 0m-.377-4.734a1.527 1.527 0 0 0 3.056 0 1.527 1.527 0 0 0-3.056 0m3.958-2.952c.843 0 1.529-.684 1.529-1.524a1.527 1.527 0 0 0-3.056 0c0 .84.685 1.524 1.527 1.524m3.073.736a1.527 1.527 0 0 0 3.056 0 1.527 1.527 0 0 0-3.056 0m-1.018 2.892c-.843 0-1.528.683-1.528 1.523a1.527 1.527 0 0 0 3.056 0c0-.84-.686-1.523-1.528-1.523m-1.009 6.049a1.527 1.527 0 0 0-3.056 0 1.527 1.527 0 0 0 3.056 0m5.924-5.644a1.527 1.527 0 0 0 3.056 0 1.527 1.527 0 0 0-3.056 0m-2.855 4.616a1.527 1.527 0 0 0 3.056 0 1.527 1.527 0 0 0-3.056 0m-2.667 4.683a1.527 1.527 0 0 0 3.056 0 1.527 1.527 0 0 0-3.056 0m8.615-5.03a1.527 1.527 0 0 0 3.056 0 1.527 1.527 0 0 0-3.056 0m-3.179 4.864a1.527 1.527 0 0 0 3.056 0 1.527 1.527 0 0 0-3.056 0m7.035 1.408c.842 0 1.527-.683 1.527-1.523a1.527 1.527 0 0 0-3.056 0c0 .84.686 1.523 1.528 1.523m-7.834 3.48a1.528 1.528 0 0 0-3.056 0 1.527 1.527 0 0 0 3.056 0m5.193-.005a1.527 1.527 0 0 0-3.056 0 1.527 1.527 0 0 0 3.056 0m3.511-1.527c-.843 0-1.528.684-1.528 1.524a1.527 1.527 0 0 0 3.056 0c0-.84-.686-1.524-1.528-1.524M19.764 1.665a1.527 1.527 0 0 0 3.056 0 1.527 1.527 0 0 0-3.056 0m3.188 10.319a1.527 1.527 0 0 0-3.056 0 1.527 1.527 0 0 0 3.056 0M17.218 7.25a1.527 1.527 0 0 0 3.056 0 1.527 1.527 0 0 0-3.056 0m-.903-2.952c.843 0 1.528-.684 1.528-1.524a1.527 1.527 0 0 0-3.056 0c0 .84.686 1.524 1.528 1.524m-6.128.736a1.527 1.527 0 0 0 3.056 0 1.527 1.527 0 0 0-3.056 0m2.546 4.416a1.527 1.527 0 0 0 3.056 0 1.527 1.527 0 0 0-3.056 0m5.593 4.525a1.527 1.527 0 0 0-3.056 0 1.527 1.527 0 0 0 3.056 0M6.29 8.331a1.527 1.527 0 0 0 3.056 0 1.527 1.527 0 0 0-3.056 0m4.383 3.093c-.843 0-1.528.683-1.528 1.523a1.527 1.527 0 0 0 3.056 0c0-.84-.686-1.523-1.528-1.523m2.667 4.683c-.842 0-1.528.684-1.528 1.524a1.527 1.527 0 0 0 3.056 0c0-.84-.685-1.524-1.528-1.524M3.197 12.6a1.527 1.527 0 0 0 3.056 0 1.527 1.527 0 0 0-3.056 0m4.707 3.34c-.843 0-1.528.684-1.528 1.524a1.527 1.527 0 0 0 3.056 0c0-.84-.686-1.523-1.528-1.523m-5.506-.116c-.843 0-1.529.684-1.529 1.524a1.528 1.528 0 0 0 3.056 0c0-.84-.685-1.524-1.527-1.524m10.89 6.527a1.527 1.527 0 0 0-3.056 0 1.527 1.527 0 0 0 3.056 0m-5.194-.005a1.527 1.527 0 0 0-3.055 0 1.527 1.527 0 0 0 3.055 0M1.528 20.82C.685 20.82 0 21.504 0 22.344a1.527 1.527 0 0 0 3.056 0c0-.84-.685-1.524-1.528-1.524M23.943 5.005c-.842 0-1.527.683-1.527 1.523a1.527 1.527 0 0 0 3.055 0c0-.84-.685-1.523-1.528-1.523"/></g></svg>