<svg version="1" xmlns="http://www.w3.org/2000/svg" width="1365.333" height="1365.333" viewBox="0 0 1024.000000 1024.000000"><path d="M446.5 259.9c-9.4 2.7-17.4 9.2-21.7 17.8-1.9 4-2.3 6.4-2.3 13.8 0 10.8 1.9 15.8 8.6 22.5 7 7.1 12.7 9.4 22.9 9.5 7.3 0 9.3-.4 14.1-2.8 6.6-3.2 13.2-10 16-16.3 3.8-8.6 2.9-21.8-2.1-29.9-2.7-4.3-8.9-9.9-13.9-12.5-4.5-2.3-16.7-3.5-21.6-2.1zM554.1 262c-7 3.3-12.6 8.8-16.1 15.6-2.1 4.2-2.5 6.3-2.5 13.9 0 7.5.4 9.8 2.4 13.9 3.1 6.3 8.6 11.8 15.3 15.3 4.5 2.3 6.5 2.7 13.8 2.8 7.2 0 9.3-.4 14-2.7 6.5-3.1 11-7.2 14.5-13.3 3.3-5.6 4-8.4 3.9-17.2-.1-8.9-3.3-16.1-10-22.3-6.6-6.1-12.4-8.4-21.6-8.6-6.6-.2-8.5.2-13.7 2.6zM667.3 283.5c-7.4 1.7-11.9 4.1-16.8 9-6.8 7-9 12.4-9 22.5 0 9.7 1.9 15 7.6 21.4 16.2 18.5 46.2 12.9 55-10.3 8.6-22.9-12.9-48-36.8-42.6zM339 283.9c-17.7 5.8-27.3 23.9-21.9 41.1 2 6.2 6.8 12.7 12.4 16.5 16.5 11.4 38.4 6 47.4-11.7 6.1-12.2 4.4-25.8-4.6-35.8-6.6-7.4-12.8-10.3-22.8-10.6-4.4-.2-9.1 0-10.5.5zM238 333.2c-8.2 3.2-16.3 11.8-18.9 20.2-5.1 16.6 2.6 33.2 18.9 40.3 2.1.9 6.8 1.6 11.5 1.7 7.2.1 8.7-.2 14.7-3.2 11.4-5.6 17.1-14.5 18.2-28.6.6-7.6-4.3-18.7-10.9-24.4-8.7-7.7-22.8-10.3-33.5-6zM759.7 333.4c-12.6 5.2-19.9 15.7-20.3 29.1-.3 9.5 2.3 16.1 9 23.1 22.7 23.5 61.9 2.7 54.9-29.1-4.4-19.7-25.2-30.6-43.6-23.1zM502 363.9c-16.6 5.1-26.3 21.5-22.8 38.7 1.7 9 8.3 17 17.5 21.6 17.7 8.7 38.4.1 44.8-18.7 7-20.9-8.8-42.7-30.8-42.4-3.4 0-7.3.4-8.7.8zM393 378.9c-11.8 2.6-22.2 12.9-24.8 24.6-3.4 15.6 5.4 31.8 20.3 37.4 12.2 4.6 25.9 1.4 35-8.3 18.5-19.7 5.8-52.2-21.2-54.1-3.2-.2-7.4 0-9.3.4zM614 379.1c-6.4 1.7-12.1 5.3-16.5 10.2-6 6.6-8.4 13.3-8.1 22.3.5 12.3 6.9 22.4 18 28.2 4.4 2.3 6.3 2.7 14.1 2.7 10.6 0 16.3-2.2 23-9 16-16 11.2-42.8-9.3-52.3-5.9-2.7-15.4-3.6-21.2-2.1zM156.8 403.1c-14.3 4.8-23 17.6-22.3 32.5.5 8.8 3.6 15.4 10.5 21.7 12.7 11.8 31.4 11.7 43.8-.1 5.9-5.6 8.8-11 10-18.4 1.6-10.5-1.7-20.4-9.2-27.9-9-8.9-21-11.8-32.8-7.8zM846.3 402.5c-14.9 4.5-23.8 16.6-23.7 32 0 5.3.6 8.3 2.6 12.5 9 19.4 34.5 25.2 50.6 11.4 7.5-6.4 11.3-14.8 11.3-24.9 0-12.9-7.5-24.2-19.5-29.6-5.7-2.5-15.7-3.2-21.3-1.4zM294.5 426.7c-13.3 4-22.8 16.9-22.6 30.5.2 8.5.2 8.4 3.6 15.1 12.2 23.8 46.6 23.3 58-.9 6-12.7 3.1-28-7-37.3-9-8.3-20.5-10.9-32-7.4zM709.7 426c-17.9 4.5-28.6 23.3-23.3 41.1 6.1 20.9 32.9 29.8 50.1 16.5 5.6-4.3 7.1-6.1 10.2-12.5 3.7-7.5 3.9-18.9.4-26.8-2.8-6.3-9.9-13.3-16.7-16.4-5.5-2.5-14.8-3.3-20.7-1.9zM448.3 480.5c-8.7 2.6-16.4 8.8-20.2 16.3-2.4 4.7-4 13.4-3.4 18.7 1.1 10.3 8.4 20.4 18.1 25.2 7.4 3.6 18.1 4.1 25.9 1.2 10.2-3.9 18.2-13.6 20.2-24.5 4.3-23.3-18-43.6-40.6-36.9zM556 480.4c-6 1.5-10.9 4.7-15.5 9.7-14.5 16.1-9.3 41.8 10.5 51.2 6.7 3.2 20.6 3.1 27.4-.2 6.1-3 11.7-8.5 14.7-14.2 2.8-5.3 2.9-5.9 3.6-13.2 1.1-11.5-4.3-22.4-14.4-29.1-7.3-4.8-17.6-6.5-26.3-4.2zM92.9 493.4c-17.3 4.5-27.2 20.9-23.7 39.4 1.5 7.7 8.7 16.5 17.2 21 4.5 2.4 6.2 2.7 14.6 2.7 8 0 10.2-.4 13.8-2.3 6.2-3.3 11.4-8.4 14.5-14 2.3-4.3 3-6.7 4.1-15.2.7-5.3-3.2-16-7.6-21.1-8.3-9.3-21.3-13.4-32.9-10.5zM914.3 493c-25 5.1-34.6 36.6-16.6 54.5 6.2 6.2 12.5 8.9 21.3 9.3 29.8 1.4 45.5-33 24.9-54.8-6.8-7.2-19.5-11-29.6-9zM222 500.5c-11.2 2.3-19.2 8.4-23.9 18.5-3.5 7.5-3.6 19.1-.2 26.4 3.7 7.8 11.8 15.1 19.5 17.5 10.2 3.1 20.8 1.6 28.7-4.1 9.4-6.8 14.1-15.9 14-27.3-.2-19.5-19.1-34.9-38.1-31zM789.2 500.2c-10.8 1.6-20 8.6-24.9 18.8-3.8 8-3.8 18.3 0 26.4 5.7 12.4 16.7 19.2 30.7 19 12.2-.2 23-7.4 28.6-19.2 2.2-4.6 2.7-7.1 2.6-12.9-.1-20-17.4-35-37-32.1zM356.8 521.5c-.1.1-2 .5-4.1.8-10.3 1.3-20.8 10.1-24.8 20.6-2.8 7.3-2.3 18.5 1 24.9 8.1 15.9 27 23 42.1 16 10.7-4.9 16.8-12.4 19.1-23.6 3.9-18.8-9-35.7-29.3-38.5-2-.3-3.8-.4-4-.2zM658.5 522c-9.1 1.4-18.4 7.6-23.1 15.6-3.3 5.7-4.4 9.8-4.5 16.7-.1 8.9 2.6 15.1 9.6 22.3 5.1 5.2 7.1 6.5 12.5 8.1 12.7 3.8 24.5 1 33.3-7.9 9.3-9.4 12-24.6 6.3-36.1-6.7-13.7-19.6-20.8-34.1-18.7zM46.2 594.2c-24 3.6-35.7 32.1-21 51.3 18.8 24.5 58 11.7 58.1-18.9.1-8.4-1.2-12.7-5.7-19-4.1-5.7-9.5-9.8-16-12-6.3-2.1-8.9-2.4-15.4-1.4zM965.9 594.1c-10.6 1.6-20.9 9.3-25.2 18.6-3.1 6.9-3.3 18.6-.5 25.4 7 16.7 27 25 42.9 17.7 12.2-5.6 19-15.5 19.5-28.3.8-20.6-16.7-36.6-36.7-33.4zM158.3 597.9c-14.2 4.9-23.4 18.9-21.9 33.5 1.2 11.6 8.2 21.7 18.4 26.3 21.1 9.7 44.4-3.9 45.9-26.8.8-11.1-3-20.3-11.4-27.3-7.9-6.7-21.1-9.1-31-5.7zM845.5 596.9c-22.1 5.4-32.2 32-19 50.3 4.4 6 9 9.4 16.1 11.9 14.2 5.1 30.5-.9 38.1-13.8 9.9-17 3.4-37.9-14.5-46.3-4.9-2.3-15.4-3.4-20.7-2.1zM277 600.7c-10.2 2.6-16.9 8-21.8 17.6-2.3 4.5-2.6 6.4-2.6 13.7 0 6.4.6 9.6 2.1 13 6.4 13.9 22.2 22 36.7 18.8 19.2-4.2 30.4-24.6 23.5-43.1-5.6-15.1-22.4-24-37.9-20zM730.5 600.5c-12.9 3-21.7 11.2-24.8 23.5-3.7 14.1 3.2 30.1 15.8 36.7 12.9 6.8 28.9 4.1 39.1-6.5 11.6-12 11.7-31.9.3-44-8.2-8.6-19.4-12.2-30.4-9.7zM25.5 700.9c-9 2.4-16.6 8.1-21.1 15.7-3.3 5.5-3.9 8.4-3.8 16.9.1 12.1 6.5 22.4 17.6 28.2 4.7 2.4 6.4 2.8 14.3 2.8 10.6 0 16.4-2.3 23-9 5.9-6 8.6-11.8 9.2-20.1 1.4-18.5-11.4-33.5-29.7-34.8-3.6-.3-7.8-.1-9.5.3zM132.7 701.1c-20.9 4.7-31.7 29.9-20.5 48 11 18 34.7 21.3 50.3 7.1 12.6-11.5 13.3-32.1 1.6-45.5-6.8-7.7-20.7-12-31.4-9.6zM243 701.5c-6.4 1.7-10.5 4-15.2 8.7-9.2 9.2-12 24.7-6.5 36 6.5 13.3 19.1 20.3 33.4 18.6 27.2-3.2 38.3-36.1 18.6-55.2-7.8-7.6-20-10.8-30.3-8.1zM763.4 701.2c-6.2 1.3-14.4 6.7-18.6 12.3-16 21.2-.8 51.6 25.7 51.6 15.9 0 28.7-10.5 31.9-26.2 2.3-11.5-1.1-21.7-10.1-29.9-7.9-7.2-18.2-10-28.9-7.8zM874.2 701c-9.1 2-18.4 9.8-22.5 18.8-3.2 6.9-3.1 19.8.2 26.5 3.1 6.3 9.5 12.7 15.6 15.7 4.2 2.1 6.5 2.5 14 2.5 10.7 0 16.2-2.2 22.9-8.9 6.8-7 9-12.5 9.1-22.6 0-7.3-.4-9.3-2.8-14.2-6.6-13.4-22.1-20.9-36.5-17.8zM980.9 701.4c-14.2 3.7-24.1 16-24.1 30 0 3.5.3 7.7.7 9.5 1.8 8.3 9.7 17.5 18.4 21.4 3.5 1.7 6.6 2.2 13.1 2.2 10.7 0 17.8-3 24.1-10.4 5.8-6.7 8-12.8 8.1-21.8 0-12.6-6.3-22.8-17.6-28.3-7.1-3.5-15.4-4.5-22.7-2.6z"/></svg>